<svg xmlns="http://www.w3.org/2000/svg" width="96" height="60" viewBox="0 0 96 60">
    <path fill="#F34" fill-rule="evenodd" d="M48 38.23L60.944 2.124H89.649s4.044.2 5.932-2.123c1.126-.08-.236 4.846-1.511 8.467-1.197 3.396-2.673 5.337-6.04 5.338H72.81L56.629 60H39.371L23.19 13.805H12.284l-4.315.001c-3.366 0-4.842-1.942-6.039-5.338C.655 4.848-.707-.08.42 0 2.307 2.324 6.35 2.125 6.35 2.125H8.09l26.966-.001L48 38.23zM12.823 20.178s-4.044.2-5.932-2.124c-1.126-.08.235 4.846 1.511 8.467 1.197 3.397 2.672 5.337 6.04 5.338h11.985l-4.045-11.682-9.559.001zm6.472 18.053s-4.045.2-5.932-2.124c-1.126-.08.235 4.846 1.51 8.467 1.198 3.397 2.673 5.337 6.04 5.338H32.9L28.854 38.23l-9.559.001zm63.882-18.053s4.044.2 5.932-2.124c1.126-.08-.235 4.846-1.511 8.467-1.197 3.397-2.672 5.337-6.04 5.338H69.574l4.045-11.682 9.559.001zm-6.472 18.053s4.045.2 5.932-2.124c1.126-.08-.235 4.846-1.51 8.467-1.198 3.397-2.673 5.337-6.04 5.338H63.1l4.045-11.682 9.559.001z"/>
</svg>
